# xmcd
# 
# Track frame offsets:
#     150
#     25647
#     58935
#     95571
#     123758
#     148166
#     167170
#     219210
# 
# Disc length: 3319
# 
# Revision: 0
# Processed by: cddbd v1.5.2PL0 Copyright (c) Steve Scherf et al.
# Submitted via: BonkEnc v1.0.8
# 
DISCID=6b0cf508
DTITLE=Werner Lansburgh mit Burghart Klauﬂner - Dear Doosie - Eine Liebesgeschichte - CD2
DYEAR=2008
DGENRE=Sprach-Lernbuch
TTITLE0=CD2 - 01
TTITLE1=CD2 - 02
TTITLE2=CD2 - 03
TTITLE3=CD2 - 04
TTITLE4=CD2 - 05
TTITLE5=CD2 - 06
TTITLE6=CD2 - 07
TTITLE7=CD2 - 08
EXTD=1977 Sprach-Lernbuch und Liebesroman\nenglisch - deutsch
EXTT0=
EXTT1=
EXTT2=
EXTT3=
EXTT4=
EXTT5=
EXTT6=
EXTT7=
PLAYORDER=
